<svg width="50" height="50" viewBox="0 0 50 50" fill="none" xmlns="http://www.w3.org/2000/svg">
<g id="Frame" clip-path="url(#clip0_1_39)">
<path id="Vector" fill-rule="evenodd" clip-rule="evenodd" d="M43.508 24.9471L43.5511 25.1286L43.6745 25.3126L43.8705 25.5011L44.1317 25.6961L44.4508 25.8992L44.8205 26.1117L45.2332 26.3345L45.6806 26.5684L46.1539 26.8137L46.6433 27.0703L47.1382 27.3374L47.6275 27.6142L48.0996 27.899L48.5424 28.1898L48.9444 28.4839L49.2944 28.7786L49.5822 29.0708L49.7994 29.357L49.9397 29.6341L49.9986 29.899L49.9747 30.1489L49.8685 30.3814L49.6835 30.595L49.4253 30.7885L49.1014 30.9616L48.7207 31.1145L48.2931 31.2482L47.8289 31.364L47.3387 31.4638L46.8325 31.55L46.32 31.6247L45.8098 31.6906L45.3096 31.7504L44.8264 31.8067L44.3656 31.8619L43.9321 31.9184L43.5295 31.9786L43.161 32.0447L42.8288 32.1186L42.5344 32.2022L42.2792 32.2973L42.0636 32.4056L41.8882 32.5284L41.7526 32.6673L41.657 32.8236L41.6005 32.9985L41.5826 33.193L41.6025 33.4082L41.6585 33.6451L41.7496 33.9041L41.8737 34.1858L42.0286 34.4902L42.212 34.8175L42.4202 35.1666L42.6499 35.5369L42.8966 35.9265L43.1551 36.3335L43.4198 36.7546L43.6843 37.1863L43.9415 37.6242L44.1836 38.0629L44.4028 38.4965L44.591 38.9187L44.7402 39.3226L44.843 39.7011L44.8927 40.0472L44.8837 40.3545L44.8123 40.6173L44.6762 40.831L44.4749 40.9923L44.2106 41.0996L43.8869 41.1527L43.5092 41.1534L43.0847 41.1049L42.6213 41.0122L42.1282 40.8809L41.6146 40.718L41.0898 40.5311L40.5628 40.3279L40.0419 40.1165L39.5347 39.9045L39.0482 39.6994L38.5883 39.5087L38.1601 39.3391L37.768 39.1975L37.416 39.0899L37.1073 39.023L36.8452 39.0034L36.6326 39.0376L36.4731 39.1335L36.3664 39.295L36.3063 39.518L36.2862 39.7982L36.3001 40.1307L36.3423 40.5115L36.4072 40.9352L36.4891 41.3969L36.5825 41.8905L36.6814 42.4091L36.7799 42.9451L36.8718 43.4897L36.9511 44.0338L37.0117 44.5673L37.0481 45.0796L37.0551 45.5606L37.0281 45.9999L36.9638 46.388L36.8598 46.717L36.7149 46.9803L36.5292 47.173L36.3044 47.2929L36.043 47.3395L35.7486 47.3152L35.426 47.2236L35.0799 47.071L34.716 46.8641L34.3395 46.6117L33.9558 46.3226L33.5698 46.0059L33.1861 45.6705L32.8083 45.3253L32.4397 44.9784L32.0829 44.6367L31.7398 44.3074L31.412 43.9957L31.1001 43.7067L30.8048 43.4447L30.526 43.2129L30.2634 43.0141L30.0164 42.851L29.7844 42.725L29.5664 42.6379L29.3614 42.5904L29.168 42.5837L28.9854 42.6182L28.8118 42.6943L28.6463 42.812L28.4872 42.9711L28.3332 43.1714L28.1826 43.4117L28.0343 43.6911L27.8864 44.0077L27.7376 44.3592L27.5864 44.743L27.4313 45.1552L27.2707 45.5912L27.1034 46.0455L26.9284 46.5119L26.7445 46.9828L26.551 47.4497L26.3472 47.9036L26.1332 48.3345L25.9092 48.7321L25.6758 49.086L25.4342 49.3866L25.1857 49.6243L24.9325 49.7916L24.6764 49.8821L24.4201 49.8922L24.166 49.8198L23.9164 49.6661L23.6738 49.4345L23.4401 49.1307L23.2169 48.7626L23.0054 48.3398L22.8063 47.873L22.6198 47.3737L22.4456 46.8538L22.2826 46.3247L22.13 45.7978L21.9861 45.2834L21.8488 44.7915L21.716 44.3306L21.5854 43.9091L21.4544 43.5341L21.3202 43.2124L21.1796 42.9507L21.0293 42.7553L20.8658 42.6331L20.6847 42.5912L20.4837 42.6292L20.2621 42.7391L20.0197 42.9131L19.7563 43.1441L19.4719 43.4249L19.1672 43.748L18.8431 44.1059L18.5008 44.4902L18.1426 44.8923L17.7707 45.3025L17.3884 45.7106L17 46.1063L16.6094 46.4784L16.2219 46.8163L15.8426 47.1099L15.4769 47.3494L15.13 47.5271L14.8072 47.636L14.5127 47.6719L14.2501 47.6327L14.0222 47.5184L13.8306 47.3314L13.6754 47.0763L13.5562 46.7594L13.471 46.3884L13.4174 45.9725L13.3917 45.5208L13.39 45.043L13.408 44.5485L13.4411 44.0461L13.4849 43.544L13.5348 43.0494L13.5866 42.5687L13.6364 42.1073L13.6806 41.6694L13.7157 41.2587L13.7389 40.8777L13.7474 40.5286L13.7388 40.213L13.7112 39.9316L13.6624 39.6846L13.5909 39.4728L13.4951 39.2954L13.3737 39.1522L13.2256 39.0426L13.0496 38.9658L12.8448 38.9205L12.6107 38.9059L12.3467 38.9203L12.0527 38.9619L11.7288 39.0291L11.3754 39.1191L10.9936 39.2298L10.5849 39.3578L10.1515 39.4996L9.69649 39.6511L9.22347 39.808L8.73716 39.9651L8.24313 40.1168L7.74782 40.2573L7.25857 40.3804L6.78333 40.4799L6.33065 40.5496L5.9092 40.5835L5.52764 40.5767L5.19408 40.5246L4.91573 40.4242L4.69851 40.2736L4.54672 40.0726L4.46274 39.8225L4.44683 39.5258L4.49716 39.187L4.60988 38.8113L4.77923 38.4053L4.99798 37.9757L5.25763 37.5299L5.54893 37.0751L5.86214 36.6183L6.18738 36.1661L6.51501 35.7243L6.83566 35.2982L7.14051 34.892L7.4212 34.5098L7.66989 34.1542L7.87917 33.8279L8.04185 33.5328L8.15077 33.2707L8.19857 33.0429L8.17733 32.8508L8.07931 32.6957L7.90595 32.5737L7.66355 32.4799L7.358 32.4089L6.99505 32.3563L6.58058 32.3179L6.12088 32.2894L5.62288 32.2669L5.09424 32.246L4.54354 32.2229L3.98026 32.1937L3.41472 32.1546L2.85802 32.1018L2.32169 32.0323L1.81744 31.943L1.35673 31.8317L0.950296 31.6969L0.607663 31.5377L0.336701 31.3541L0.143218 31.1466L0.0306685 30.9172L0 30.6679L0.049645 30.4015L0.175665 30.1212L0.372025 29.8307L0.630971 29.5334L0.943467 29.2327L1.29966 28.9317L1.68932 28.6334L2.10227 28.3402L2.52866 28.0541L2.9593 27.7765L3.38578 27.5085L3.80065 27.2507L4.19733 27.0035L4.57026 26.7665L4.91475 26.5395L5.22694 26.3218L5.50371 26.1126L5.74255 25.911L5.94157 25.7159L6.0993 25.5261L6.21468 25.3404L6.28698 25.1574L6.31577 24.976L6.30088 24.7947L6.24241 24.6124L6.14069 24.4277L5.99635 24.2394L5.81034 24.046L5.58399 23.8467L5.31906 23.6399L5.01786 23.425L4.68328 23.2011L4.31894 22.9673L3.92926 22.7233L3.51953 22.469L3.09598 22.2042L2.6658 21.9296L2.23708 21.646L1.81882 21.3549L1.42063 21.058L1.05267 20.7575L0.725157 20.4564L0.448124 20.1577L0.230917 19.8645L0.0817459 19.5807L0.00723908 19.3095L0.0120378 19.0545L0.0984871 18.8184L0.266448 18.6038L0.513252 18.4124L0.833818 18.2454L1.2209 18.1028L1.66544 17.9842L2.15704 17.8881L2.68441 17.8126L3.2359 17.7549L3.79985 17.7117L4.36501 17.6797L4.92078 17.6552L5.45742 17.6341L5.96606 17.6124L6.43875 17.5863L6.86833 17.5514L7.24835 17.5039L7.57281 17.4392L7.83595 17.3531L8.03196 17.2408L8.15467 17.0968L8.19968 16.9165L8.17299 16.7L8.08273 16.4486L7.93639 16.1638L7.74118 15.8472L7.50424 15.5008L7.23292 15.1267L6.93489 14.7278L6.61833 14.3075L6.29194 13.8702L5.96489 13.4207L5.64679 12.9647L5.34744 12.5086L5.07667 12.0591L4.84393 11.6236L4.65799 11.2092L4.52653 10.8232L4.45581 10.472L4.45033 10.1614L4.51256 9.89603L4.64291 9.67915L4.83966 9.51249L5.0991 9.39624L5.41581 9.32908L5.78293 9.30824L6.19259 9.32974L6.63628 9.38862L7.10526 9.47923L7.59096 9.59552L8.08517 9.73117L8.58034 9.87999L9.06977 10.036L9.54756 10.1934L10.0088 10.3472L10.4494 10.4926L10.8662 10.6254L11.2568 10.7419L11.6194 10.8389L11.9528 10.9136L12.2563 10.9636L12.5299 10.9869L12.7735 10.9816L12.9875 10.9463L13.1726 10.8796L13.3295 10.7806L13.4593 10.6482L13.5631 10.4818L13.6422 10.2808L13.698 10.0451L13.7322 9.77464L13.7466 9.46976L13.7433 9.13124L13.7245 8.76032L13.6929 8.35881L13.6513 7.92922L13.6029 7.4748L13.5513 6.99968L13.5003 6.5089L13.4541 6.00845L13.4171 5.50531L13.3938 5.00735L13.3887 4.52324L13.4063 4.06222L13.4507 3.63384L13.5255 3.24761L13.6336 2.91261L13.7771 2.63701L13.9572 2.4277L14.1737 2.28983L14.4255 2.22655L14.7101 2.23869L15.0244 2.32479L15.364 2.48109L15.7242 2.70173L16.0999 2.97905L16.4854 3.30395L16.8755 3.6664L17.2652 4.05568L17.6499 4.46101L18.0253 4.87166L18.3883 5.27736L18.7359 5.66838L19.0661 6.03563L19.3771 6.37071L19.6679 6.66575L19.9382 6.91335L20.1872 7.1063L20.4154 7.23742L20.623 7.29919L20.8102 7.28344L20.9789 7.18608L21.1329 7.01328L21.2763 6.772L21.4121 6.46876L21.5439 6.11004L21.6742 5.70253L21.8061 5.25338L21.9417 4.77041L22.0833 4.26217L22.2331 3.73813L22.3926 3.20853L22.5631 2.6844L22.7456 2.17726L22.9406 1.69887L23.1482 1.26085L23.3678 0.874256L23.5983 0.54906L23.8383 0.293707L24.0858 0.114687L24.3388 0.0162112L24.5948 0L24.8511 0.0652318L25.1055 0.208637L25.3556 0.42473L25.5997 0.706169L25.8358 1.04417L26.0629 1.42899L26.2802 1.85039L26.4872 2.29802L26.6839 2.76184L26.8708 3.23242L27.0486 3.70106L27.2182 4.16001L27.3807 4.60253L27.5375 5.02282L27.6898 5.41605L27.8393 5.77825L27.9872 6.10631L28.1353 6.39772L28.2848 6.65066L28.4376 6.86373L28.595 7.03603L28.7584 7.16698L28.9292 7.25631L29.1088 7.30405L29.2986 7.31042L29.4997 7.27591L29.7135 7.20127L29.9409 7.08753L30.1831 6.93601L30.4406 6.74839L30.7142 6.52687L31.0043 6.27408L31.3109 5.99327L31.6337 5.68834L31.972 5.36398L32.3247 5.02564L32.6897 4.67961L33.0649 4.33296L33.4472 3.99358L33.8329 3.66994L34.2178 3.37101L34.5971 3.10592L34.9657 2.88372L35.318 2.71292L35.6488 2.60119L35.9526 2.55485L36.2249 2.57858L36.4618 2.67504L36.6601 2.84475L36.818 3.08592L36.935 3.39461L37.0118 3.76479L37.0503 4.18876L37.0537 4.65747L37.0262 5.16098L36.9727 5.68886L36.8988 6.23066L36.8102 6.7762L36.7131 7.31588L36.6136 7.84087L36.5179 8.34319L36.4317 8.81574L36.3607 9.25226L36.3107 9.64721L36.2872 9.99562L36.2959 10.2929L36.3426 10.5346L36.4336 10.7163L36.5759 10.8331L36.7719 10.8862L37.0186 10.8829L37.3128 10.8303L37.6514 10.735L38.0311 10.6035L38.4482 10.4422L38.8986 10.2574L39.3773 10.0562L39.8785 9.8456L40.3957 9.63309L40.9218 9.42641L41.4482 9.23348L41.9664 9.06215L42.4671 8.92008L42.9409 8.81434L43.3788 8.7512L43.7722 8.73582L44.1138 8.77197L44.3975 8.86186L44.619 9.00602L44.776 9.2033L44.8679 9.45091L44.8964 9.74462L44.8649 10.0791L44.7784 10.448L44.6431 10.8445L44.4665 11.2616L44.2562 11.6924L44.0205 12.1302L43.7674 12.5689L43.5044 13.003L43.2391 13.428L42.9778 13.8398L42.7269 14.2352L42.4913 14.6119L42.2758 14.968L42.0842 15.3022L41.9198 15.614L41.7857 15.9029L41.6839 16.1691L41.6164 16.4129L41.585 16.6349L41.5908 16.836L41.6347 17.017L41.7179 17.1791L41.8406 17.3235L42.0034 17.4513L42.2062 17.564L42.4489 17.663L42.7309 17.7501L43.0511 17.827L43.4083 17.8953L43.8003 17.9571L44.2244 18.0147L44.6769 18.07L45.1536 18.1256L45.649 18.1839L46.1569 18.2476L46.6696 18.3193L47.1788 18.4015L47.6751 18.4968L48.1488 18.6073L48.5891 18.7351L48.9858 18.8817L49.3289 19.0483L49.6088 19.2355L49.8178 19.4427L49.9496 19.6694L50 19.914L49.9675 20.1743L49.8528 20.4478L49.6594 20.7314L49.3932 21.0221L49.062 21.3163L48.6755 21.611L48.2444 21.9031L47.7803 22.1901L47.2953 22.4696L46.8008 22.7399L46.3085 23L45.8291 23.2489L45.3723 23.4865L44.9477 23.7127L44.5634 23.9284L44.2274 24.1344L43.9471 24.3318L43.7295 24.5222L43.5821 24.7074L43.5124 24.8894L43.508 24.9471Z" fill="#F3A60F"/>
<path id="Vector_2" d="M39.8866 24.9311C39.8866 32.9027 33.2503 39.3649 25.0639 39.3649C16.8776 39.3649 10.2412 32.9027 10.2412 24.9311C10.2412 16.9595 16.8776 10.4973 25.0639 10.4973C33.2503 10.4973 39.8866 16.9595 39.8866 24.9311Z" fill="#FFC700"/>
<path id="Vector_3" d="M24.562 30.0068C23.8294 30.0068 23.1798 29.8799 22.6132 29.626C22.0497 29.3689 21.6052 29.0149 21.2796 28.5641C20.954 28.1134 20.7882 27.5944 20.7818 27.0073H23.1204C23.1298 27.2198 23.197 27.4088 23.3223 27.5737C23.4475 27.7356 23.6181 27.8627 23.834 27.9547C24.0501 28.0468 24.2959 28.0927 24.5714 28.0927C24.8468 28.0927 25.0894 28.0436 25.2992 27.9451C25.512 27.8436 25.678 27.7056 25.7968 27.531C25.9159 27.3532 25.9738 27.15 25.9707 26.9215C25.9738 26.693 25.9097 26.4898 25.7781 26.312C25.6467 26.1344 25.4603 25.9962 25.2193 25.8978C24.9814 25.7994 24.6997 25.7503 24.3741 25.7503H23.4397V24.0743H24.3741C24.659 24.0743 24.9094 24.0267 25.1254 23.9314C25.3445 23.8362 25.5152 23.7028 25.6372 23.5314C25.7594 23.3568 25.8189 23.1568 25.8157 22.9316C25.8189 22.7126 25.7672 22.5205 25.6608 22.3554C25.5574 22.1872 25.4119 22.057 25.224 21.9649C25.0393 21.8729 24.8249 21.827 24.5807 21.827C24.324 21.827 24.0908 21.8729 23.881 21.9649C23.6744 22.057 23.5101 22.1872 23.388 22.3554C23.2659 22.5236 23.2018 22.7189 23.1955 22.9411H20.9744C20.9807 22.3602 21.1404 21.8492 21.4533 21.408C21.7664 20.9635 22.1922 20.6159 22.7306 20.3652C23.2722 20.1144 23.8889 19.9891 24.5807 19.9891C25.2694 19.9891 25.8752 20.1113 26.3979 20.3557C26.9208 20.6001 27.3277 20.9334 27.6189 21.3556C27.9099 21.7746 28.0555 22.249 28.0555 22.7792C28.0587 23.3284 27.8818 23.7806 27.5249 24.1362C27.1712 24.4916 26.7157 24.7106 26.1584 24.7932V24.8694C26.9036 24.9582 27.4654 25.2027 27.8442 25.6027C28.2262 26.0025 28.4156 26.5025 28.4124 27.1024C28.4124 27.6675 28.2481 28.169 27.9194 28.607C27.5938 29.0419 27.1398 29.3846 26.5576 29.6355C25.9785 29.883 25.3132 30.0068 24.562 30.0068Z" fill="black"/>
</g>
<defs>
<clipPath id="clip0_1_39">
<rect width="50" height="50" fill="white"/>
</clipPath>
</defs>
</svg>
